<svg xmlns="http://www.w3.org/2000/svg" xmlns:xlink="http://www.w3.org/1999/xlink" width="180" zoomAndPan="magnify" viewBox="0 0 135 135.000003" height="180" preserveAspectRatio="xMidYMid meet" version="1.0"><defs><clipPath id="911e620cc2"><path d="M 4 3.503906 L 130.679688 3.503906 L 130.679688 130.183594 L 4 130.183594 Z M 4 3.503906 " clip-rule="nonzero"/></clipPath><clipPath id="1d3cc93e31"><path d="M 4 29.097656 L 4 104.683594 C 4 118.820312 15.457031 130.277344 29.59375 130.277344 L 105.179688 130.277344 C 119.316406 130.277344 130.773438 118.820312 130.773438 104.683594 L 130.773438 29.097656 C 130.773438 14.960938 119.316406 3.503906 105.179688 3.503906 L 29.59375 3.503906 C 15.457031 3.503906 4 14.960938 4 29.097656 Z M 4 29.097656 " clip-rule="nonzero"/></clipPath></defs><g clip-path="url(#911e620cc2)"><g clip-path="url(#1d3cc93e31)"><path fill="#1db954" d="M 122.527344 130.273438 L 12.246094 130.273438 C 7.703125 130.273438 4 126.574219 4 122.03125 L 4 11.746094 C 4 7.207031 7.703125 3.503906 12.246094 3.503906 L 122.527344 3.503906 C 127.070312 3.503906 130.769531 7.207031 130.769531 11.746094 L 130.769531 122.03125 C 130.769531 126.574219 127.070312 130.273438 122.527344 130.273438 Z M 122.527344 130.273438 " fill-opacity="1" fill-rule="nonzero"/></g></g><path fill="#ffffff" d="M 67.855469 107.101562 C 62.019531 107.101562 56.96875 106.207031 52.703125 104.410156 C 48.4375 102.613281 45.125 99.957031 42.765625 96.445312 C 40.410156 92.933594 39.183594 88.628906 39.085938 83.527344 L 53.375 83.527344 C 53.503906 85.964844 54.191406 88.027344 55.445312 89.710938 C 56.695312 91.394531 58.378906 92.660156 60.492188 93.507812 C 62.609375 94.359375 65.03125 94.78125 67.761719 94.78125 C 70.390625 94.78125 72.691406 94.398438 74.664062 93.628906 C 76.636719 92.859375 78.167969 91.785156 79.261719 90.40625 C 80.351562 89.027344 80.898438 87.4375 80.898438 85.644531 C 80.898438 84.007812 80.421875 82.628906 79.472656 81.507812 C 78.527344 80.382812 77.132812 79.421875 75.289062 78.621094 C 73.445312 77.820312 71.164062 77.113281 68.4375 76.5 L 60.640625 74.574219 C 54.355469 73.101562 49.484375 70.765625 46.039062 67.574219 C 42.589844 64.382812 40.867188 60.191406 40.867188 54.996094 C 40.867188 50.664062 42.03125 46.878906 44.355469 43.640625 C 46.679688 40.402344 49.867188 37.878906 53.925781 36.066406 C 57.984375 34.253906 62.644531 33.347656 67.902344 33.347656 C 73.226562 33.347656 77.871094 34.261719 81.828125 36.09375 C 85.792969 37.917969 88.878906 40.46875 91.089844 43.738281 C 93.304688 47.007812 94.460938 50.808594 94.5625 55.140625 L 80.417969 55.140625 C 80.15625 52.15625 78.914062 49.832031 76.683594 48.164062 C 74.457031 46.496094 71.496094 45.660156 67.808594 45.660156 C 65.335938 45.660156 63.203125 46.023438 61.410156 46.746094 C 59.613281 47.46875 58.242188 48.460938 57.292969 49.730469 C 56.347656 50.996094 55.875 52.445312 55.875 54.082031 C 55.875 55.78125 56.378906 57.199219 57.390625 58.339844 C 58.402344 59.480469 59.796875 60.425781 61.574219 61.175781 C 63.355469 61.929688 65.351562 62.566406 67.566406 63.082031 L 74.109375 64.664062 C 77.289062 65.371094 80.199219 66.3125 82.84375 67.484375 C 85.488281 68.65625 87.777344 70.074219 89.699219 71.738281 C 91.625 73.40625 93.101562 75.378906 94.125 77.65625 C 95.152344 79.9375 95.664062 82.535156 95.664062 85.453125 C 95.664062 89.84375 94.558594 93.671875 92.34375 96.925781 C 90.132812 100.183594 86.960938 102.691406 82.820312 104.460938 C 78.683594 106.222656 73.695312 107.101562 67.855469 107.101562 Z M 67.855469 107.101562 " fill-opacity="1" fill-rule="nonzero"/></svg>