<svg xmlns="http://www.w3.org/2000/svg" xmlns:xlink="http://www.w3.org/1999/xlink" width="180" zoomAndPan="magnify" viewBox="0 0 135 135.000003" height="180" preserveAspectRatio="xMidYMid meet" version="1.0"><defs><g/><clipPath id="dd26c3990d"><path d="M 2.671875 2.175781 L 132.214844 2.175781 L 132.214844 131.71875 L 2.671875 131.71875 Z M 2.671875 2.175781 " clip-rule="nonzero"/></clipPath><clipPath id="44aeb09013"><path d="M 2.671875 28.234375 L 2.671875 105.773438 C 2.671875 120.164062 14.339844 131.832031 28.730469 131.832031 L 106.269531 131.832031 C 120.660156 131.832031 132.328125 120.164062 132.328125 105.773438 L 132.328125 28.234375 C 132.328125 13.84375 120.660156 2.175781 106.269531 2.175781 L 28.730469 2.175781 C 14.339844 2.175781 2.671875 13.84375 2.671875 28.234375 Z M 2.671875 28.234375 " clip-rule="nonzero"/></clipPath><clipPath id="6139cda60d"><rect x="0" width="45" y="0" height="80"/></clipPath></defs><g clip-path="url(#dd26c3990d)"><g clip-path="url(#44aeb09013)"><path fill="#1db954" d="M 123.886719 131.820312 L 11.105469 131.820312 C 6.457031 131.820312 2.671875 128.035156 2.671875 123.390625 L 2.671875 10.609375 C 2.671875 5.960938 6.457031 2.175781 11.105469 2.175781 L 123.886719 2.175781 C 128.535156 2.175781 132.320312 5.960938 132.320312 10.609375 L 132.320312 123.390625 C 132.320312 128.035156 128.535156 131.820312 123.886719 131.820312 Z M 123.886719 131.820312 " fill-opacity="1" fill-rule="nonzero"/></g></g><g transform="matrix(1, 0, 0, 1, 46, 27)"><g clip-path="url(#6139cda60d)"><g fill="#ffffff" fill-opacity="1"><g transform="translate(0.951004, 63.545192)"><g><path d="M 20.84375 0.671875 C 17.125 0.671875 13.90625 0.0976562 11.1875 -1.046875 C 8.46875 -2.191406 6.359375 -3.878906 4.859375 -6.109375 C 3.359375 -8.347656 2.578125 -11.09375 2.515625 -14.34375 L 11.625 -14.34375 C 11.707031 -12.789062 12.144531 -11.476562 12.9375 -10.40625 C 13.738281 -9.332031 14.8125 -8.523438 16.15625 -7.984375 C 17.507812 -7.441406 19.054688 -7.171875 20.796875 -7.171875 C 22.460938 -7.171875 23.925781 -7.414062 25.1875 -7.90625 C 26.445312 -8.394531 27.421875 -9.078125 28.109375 -9.953125 C 28.804688 -10.835938 29.15625 -11.851562 29.15625 -13 C 29.15625 -14.039062 28.851562 -14.921875 28.25 -15.640625 C 27.644531 -16.359375 26.753906 -16.972656 25.578125 -17.484375 C 24.410156 -17.992188 22.957031 -18.441406 21.21875 -18.828125 L 16.25 -20.046875 C 12.238281 -20.992188 9.132812 -22.484375 6.9375 -24.515625 C 4.75 -26.546875 3.65625 -29.21875 3.65625 -32.53125 C 3.65625 -35.289062 4.394531 -37.703125 5.875 -39.765625 C 7.351562 -41.828125 9.382812 -43.4375 11.96875 -44.59375 C 14.5625 -45.75 17.53125 -46.328125 20.875 -46.328125 C 24.269531 -46.328125 27.226562 -45.742188 29.75 -44.578125 C 32.28125 -43.410156 34.25 -41.785156 35.65625 -39.703125 C 37.070312 -37.617188 37.8125 -35.195312 37.875 -32.4375 L 28.859375 -32.4375 C 28.691406 -34.34375 27.894531 -35.828125 26.46875 -36.890625 C 25.050781 -37.953125 23.164062 -38.484375 20.8125 -38.484375 C 19.238281 -38.484375 17.878906 -38.253906 16.734375 -37.796875 C 15.597656 -37.335938 14.726562 -36.703125 14.125 -35.890625 C 13.519531 -35.078125 13.21875 -34.148438 13.21875 -33.109375 C 13.21875 -32.023438 13.535156 -31.117188 14.171875 -30.390625 C 14.816406 -29.671875 15.707031 -29.070312 16.84375 -28.59375 C 17.976562 -28.113281 19.253906 -27.707031 20.671875 -27.375 L 24.84375 -26.375 C 26.863281 -25.914062 28.71875 -25.3125 30.40625 -24.5625 C 32.09375 -23.820312 33.546875 -22.921875 34.765625 -21.859375 C 35.992188 -20.796875 36.9375 -19.535156 37.59375 -18.078125 C 38.25 -16.628906 38.578125 -14.976562 38.578125 -13.125 C 38.578125 -10.320312 37.867188 -7.882812 36.453125 -5.8125 C 35.046875 -3.738281 33.023438 -2.140625 30.390625 -1.015625 C 27.753906 0.109375 24.570312 0.671875 20.84375 0.671875 Z M 20.84375 0.671875 "/></g></g></g></g></g></svg>