<svg xmlns="http://www.w3.org/2000/svg" xmlns:xlink="http://www.w3.org/1999/xlink" width="128" zoomAndPan="magnify" viewBox="0 0 96 95.999999" height="128" preserveAspectRatio="xMidYMid meet" version="1.0"><defs><g/><clipPath id="5d6f0e4b00"><path d="M 1.558594 1.558594 L 94.558594 1.558594 L 94.558594 94.558594 L 1.558594 94.558594 Z M 1.558594 1.558594 " clip-rule="nonzero"/></clipPath><clipPath id="dba822407d"><path d="M 1.558594 20.308594 L 1.558594 75.691406 C 1.558594 86.046875 9.953125 94.441406 20.308594 94.441406 L 75.691406 94.441406 C 86.046875 94.441406 94.441406 86.046875 94.441406 75.691406 L 94.441406 20.308594 C 94.441406 9.953125 86.046875 1.558594 75.691406 1.558594 L 20.308594 1.558594 C 9.953125 1.558594 1.558594 9.953125 1.558594 20.308594 Z M 1.558594 20.308594 " clip-rule="nonzero"/></clipPath><clipPath id="be27beed68"><rect x="0" width="32" y="0" height="58"/></clipPath></defs><g clip-path="url(#5d6f0e4b00)"><g clip-path="url(#dba822407d)"><path fill="#1db954" d="M 88.390625 94.429688 L 7.597656 94.429688 C 4.269531 94.429688 1.558594 91.71875 1.558594 88.390625 L 1.558594 7.597656 C 1.558594 4.269531 4.269531 1.558594 7.597656 1.558594 L 88.390625 1.558594 C 91.71875 1.558594 94.429688 4.269531 94.429688 7.597656 L 94.429688 88.390625 C 94.429688 91.71875 91.71875 94.429688 88.390625 94.429688 Z M 88.390625 94.429688 " fill-opacity="1" fill-rule="nonzero"/></g></g><g transform="matrix(1, 0, 0, 1, 33, 19)"><g clip-path="url(#be27beed68)"><g fill="#ffffff" fill-opacity="1"><g transform="translate(0.279139, 45.86463)"><g><path d="M 14.9375 0.484375 C 12.269531 0.484375 9.960938 0.0703125 8.015625 -0.75 C 6.066406 -1.570312 4.550781 -2.78125 3.46875 -4.375 C 2.394531 -5.976562 1.835938 -7.945312 1.796875 -10.28125 L 8.328125 -10.28125 C 8.378906 -9.164062 8.691406 -8.222656 9.265625 -7.453125 C 9.835938 -6.679688 10.609375 -6.101562 11.578125 -5.71875 C 12.546875 -5.332031 13.648438 -5.140625 14.890625 -5.140625 C 16.085938 -5.140625 17.132812 -5.3125 18.03125 -5.65625 C 18.9375 -6.007812 19.640625 -6.5 20.140625 -7.125 C 20.640625 -7.757812 20.890625 -8.488281 20.890625 -9.3125 C 20.890625 -10.0625 20.671875 -10.691406 20.234375 -11.203125 C 19.804688 -11.710938 19.171875 -12.148438 18.328125 -12.515625 C 17.484375 -12.878906 16.441406 -13.203125 15.203125 -13.484375 L 11.640625 -14.359375 C 8.773438 -15.035156 6.550781 -16.101562 4.96875 -17.5625 C 3.394531 -19.019531 2.609375 -20.9375 2.609375 -23.3125 C 2.609375 -25.28125 3.140625 -27.003906 4.203125 -28.484375 C 5.265625 -29.960938 6.722656 -31.113281 8.578125 -31.9375 C 10.429688 -32.769531 12.554688 -33.1875 14.953125 -33.1875 C 17.390625 -33.1875 19.507812 -32.769531 21.3125 -31.9375 C 23.125 -31.101562 24.535156 -29.9375 25.546875 -28.4375 C 26.554688 -26.945312 27.082031 -25.210938 27.125 -23.234375 L 20.671875 -23.234375 C 20.554688 -24.597656 19.988281 -25.660156 18.96875 -26.421875 C 17.945312 -27.179688 16.597656 -27.5625 14.921875 -27.5625 C 13.785156 -27.5625 12.804688 -27.394531 11.984375 -27.0625 C 11.171875 -26.738281 10.546875 -26.285156 10.109375 -25.703125 C 9.679688 -25.128906 9.46875 -24.46875 9.46875 -23.71875 C 9.46875 -22.945312 9.695312 -22.300781 10.15625 -21.78125 C 10.613281 -21.257812 11.25 -20.828125 12.0625 -20.484375 C 12.875 -20.140625 13.785156 -19.847656 14.796875 -19.609375 L 17.796875 -18.890625 C 19.242188 -18.566406 20.570312 -18.132812 21.78125 -17.59375 C 22.988281 -17.0625 24.03125 -16.414062 24.90625 -15.65625 C 25.78125 -14.894531 26.453125 -13.992188 26.921875 -12.953125 C 27.390625 -11.921875 27.625 -10.738281 27.625 -9.40625 C 27.625 -7.394531 27.117188 -5.644531 26.109375 -4.15625 C 25.097656 -2.675781 23.648438 -1.53125 21.765625 -0.71875 C 19.878906 0.0820312 17.601562 0.484375 14.9375 0.484375 Z M 14.9375 0.484375 "/></g></g></g></g></g></svg>