<svg xmlns="http://www.w3.org/2000/svg" xmlns:xlink="http://www.w3.org/1999/xlink" width="128" zoomAndPan="magnify" viewBox="0 0 96 95.999999" height="128" preserveAspectRatio="xMidYMid meet" version="1.0"><defs><clipPath id="36090959a3"><path d="M 2.507812 2.507812 L 93.144531 2.507812 L 93.144531 93.144531 L 2.507812 93.144531 Z M 2.507812 2.507812 " clip-rule="nonzero"/></clipPath><clipPath id="78ee4e3b31"><path d="M 2.507812 20.820312 L 2.507812 74.902344 C 2.507812 85.015625 10.707031 93.210938 20.820312 93.210938 L 74.902344 93.210938 C 85.015625 93.210938 93.210938 85.015625 93.210938 74.902344 L 93.210938 20.820312 C 93.210938 10.707031 85.015625 2.507812 74.902344 2.507812 L 20.820312 2.507812 C 10.707031 2.507812 2.507812 10.707031 2.507812 20.820312 Z M 2.507812 20.820312 " clip-rule="nonzero"/></clipPath></defs><g clip-path="url(#36090959a3)"><g clip-path="url(#78ee4e3b31)"><path fill="#1db954" d="M 87.3125 93.210938 L 8.40625 93.210938 C 5.15625 93.210938 2.507812 90.5625 2.507812 87.3125 L 2.507812 8.40625 C 2.507812 5.15625 5.15625 2.507812 8.40625 2.507812 L 87.3125 2.507812 C 90.5625 2.507812 93.210938 5.15625 93.210938 8.40625 L 93.210938 87.3125 C 93.210938 90.5625 90.5625 93.210938 87.3125 93.210938 Z M 87.3125 93.210938 " fill-opacity="1" fill-rule="nonzero"/></g></g><path fill="#ffffff" d="M 48.195312 76.632812 C 44.019531 76.632812 40.40625 75.988281 37.355469 74.707031 C 34.304688 73.417969 31.933594 71.519531 30.246094 69.007812 C 28.558594 66.496094 27.679688 63.414062 27.613281 59.765625 L 37.835938 59.765625 C 37.925781 61.507812 38.421875 62.984375 39.316406 64.1875 C 40.210938 65.390625 41.414062 66.296875 42.929688 66.90625 C 44.445312 67.511719 46.175781 67.816406 48.128906 67.816406 C 50.007812 67.816406 51.65625 67.542969 53.066406 66.992188 C 54.480469 66.441406 55.574219 65.671875 56.355469 64.683594 C 57.136719 63.699219 57.527344 62.5625 57.527344 61.277344 C 57.527344 60.109375 57.1875 59.121094 56.507812 58.316406 C 55.832031 57.515625 54.832031 56.828125 53.515625 56.253906 C 52.195312 55.679688 50.5625 55.175781 48.613281 54.734375 L 43.035156 53.359375 C 38.535156 52.304688 35.050781 50.632812 32.585938 48.351562 C 30.121094 46.066406 28.886719 43.066406 28.886719 39.351562 C 28.886719 36.253906 29.71875 33.542969 31.382812 31.226562 C 33.042969 28.910156 35.328125 27.101562 38.226562 25.804688 C 41.132812 24.507812 44.464844 23.859375 48.230469 23.859375 C 52.039062 23.859375 55.359375 24.515625 58.195312 25.824219 C 61.03125 27.132812 63.238281 28.957031 64.820312 31.292969 C 66.40625 33.636719 67.234375 36.355469 67.304688 39.453125 L 57.183594 39.453125 C 56.996094 37.316406 56.109375 35.652344 54.511719 34.460938 C 52.917969 33.269531 50.800781 32.671875 48.160156 32.671875 C 46.394531 32.671875 44.867188 32.929688 43.585938 33.445312 C 42.300781 33.964844 41.316406 34.675781 40.640625 35.582031 C 39.960938 36.488281 39.625 37.527344 39.625 38.695312 C 39.625 39.910156 39.984375 40.925781 40.707031 41.742188 C 41.433594 42.558594 42.429688 43.234375 43.703125 43.773438 C 44.976562 44.3125 46.40625 44.765625 47.988281 45.132812 L 52.671875 46.265625 C 54.945312 46.773438 57.027344 47.445312 58.917969 48.285156 C 60.8125 49.121094 62.449219 50.136719 63.824219 51.328125 C 65.203125 52.523438 66.257812 53.933594 66.992188 55.5625 C 67.726562 57.195312 68.09375 59.054688 68.09375 61.140625 C 68.09375 64.285156 67.300781 67.019531 65.71875 69.351562 C 64.136719 71.679688 61.863281 73.476562 58.902344 74.742188 C 55.945312 76 52.375 76.632812 48.195312 76.632812 Z M 48.195312 76.632812 " fill-opacity="1" fill-rule="nonzero"/></svg>