<svg xmlns="http://www.w3.org/2000/svg" xmlns:xlink="http://www.w3.org/1999/xlink" width="512" zoomAndPan="magnify" viewBox="0 0 384 383.999986" height="512" preserveAspectRatio="xMidYMid meet" version="1.0"><defs><g/><clipPath id="88c126f025"><path d="M 6.238281 6.238281 L 377.488281 6.238281 L 377.488281 377.488281 L 6.238281 377.488281 Z M 6.238281 6.238281 " clip-rule="nonzero"/></clipPath><clipPath id="d7198f5374"><path d="M 6.238281 81.238281 L 6.238281 302.761719 C 6.238281 344.183594 39.816406 377.761719 81.238281 377.761719 L 302.761719 377.761719 C 344.183594 377.761719 377.761719 344.183594 377.761719 302.761719 L 377.761719 81.238281 C 377.761719 39.816406 344.183594 6.238281 302.761719 6.238281 L 81.238281 6.238281 C 39.816406 6.238281 6.238281 39.816406 6.238281 81.238281 Z M 6.238281 81.238281 " clip-rule="nonzero"/></clipPath><clipPath id="e6a2847803"><rect x="0" width="200" y="0" height="362"/></clipPath></defs><g clip-path="url(#88c126f025)"><g clip-path="url(#d7198f5374)"><path fill="#1db954" d="M 353.597656 377.757812 L 30.398438 377.757812 C 17.085938 377.757812 6.238281 366.910156 6.238281 353.597656 L 6.238281 30.398438 C 6.238281 17.085938 17.085938 6.238281 30.398438 6.238281 L 353.597656 6.238281 C 366.910156 6.238281 377.757812 17.085938 377.757812 30.398438 L 377.757812 353.597656 C 377.757812 366.910156 366.910156 377.757812 353.597656 377.757812 Z M 353.597656 377.757812 " fill-opacity="1" fill-rule="nonzero"/></g></g><g transform="matrix(1, 0, 0, 1, 97, 17)"><g clip-path="url(#e6a2847803)"><g fill="#ffffff" fill-opacity="1"><g transform="translate(0.500996, 289.74156)"><g><path d="M 95.875 3.109375 C 78.769531 3.109375 63.96875 0.476562 51.46875 -4.78125 C 38.96875 -10.050781 29.257812 -17.832031 22.34375 -28.125 C 15.4375 -38.414062 11.84375 -51.035156 11.5625 -65.984375 L 53.4375 -65.984375 C 53.8125 -58.835938 55.832031 -52.796875 59.5 -47.859375 C 63.164062 -42.929688 68.097656 -39.222656 74.296875 -36.734375 C 80.503906 -34.242188 87.601562 -33 95.59375 -33 C 103.300781 -33 110.046875 -34.125 115.828125 -36.375 C 121.609375 -38.632812 126.097656 -41.785156 129.296875 -45.828125 C 132.492188 -49.867188 134.09375 -54.519531 134.09375 -59.78125 C 134.09375 -64.570312 132.703125 -68.613281 129.921875 -71.90625 C 127.148438 -75.195312 123.0625 -78.015625 117.65625 -80.359375 C 112.257812 -82.710938 105.566406 -84.785156 97.578125 -86.578125 L 74.734375 -92.21875 C 56.304688 -96.539062 42.039062 -103.378906 31.9375 -112.734375 C 21.832031 -122.085938 16.78125 -134.375 16.78125 -149.59375 C 16.78125 -162.289062 20.1875 -173.382812 27 -182.875 C 33.8125 -192.363281 43.160156 -199.765625 55.046875 -205.078125 C 66.941406 -210.390625 80.597656 -213.046875 96.015625 -213.046875 C 111.617188 -213.046875 125.222656 -210.363281 136.828125 -205 C 148.441406 -199.644531 157.488281 -192.175781 163.96875 -182.59375 C 170.457031 -173.007812 173.847656 -161.867188 174.140625 -149.171875 L 132.6875 -149.171875 C 131.925781 -157.921875 128.28125 -164.738281 121.75 -169.625 C 115.21875 -174.507812 106.546875 -176.953125 95.734375 -176.953125 C 88.492188 -176.953125 82.242188 -175.894531 76.984375 -173.78125 C 71.722656 -171.664062 67.703125 -168.75 64.921875 -165.03125 C 62.148438 -161.320312 60.765625 -157.070312 60.765625 -152.28125 C 60.765625 -147.300781 62.242188 -143.140625 65.203125 -139.796875 C 68.171875 -136.460938 72.257812 -133.691406 77.46875 -131.484375 C 82.6875 -129.273438 88.539062 -127.414062 95.03125 -125.90625 L 114.203125 -121.265625 C 123.515625 -119.191406 132.046875 -116.4375 139.796875 -113 C 147.554688 -109.570312 154.253906 -105.414062 159.890625 -100.53125 C 165.535156 -95.644531 169.859375 -89.863281 172.859375 -83.1875 C 175.867188 -76.507812 177.375 -68.894531 177.375 -60.34375 C 177.375 -47.46875 174.128906 -36.257812 167.640625 -26.71875 C 161.160156 -17.175781 151.859375 -9.816406 139.734375 -4.640625 C 127.609375 0.523438 112.988281 3.109375 95.875 3.109375 Z M 95.875 3.109375 "/></g></g></g></g></g></svg>