<svg xmlns="http://www.w3.org/2000/svg" xmlns:xlink="http://www.w3.org/1999/xlink" width="1200" zoomAndPan="magnify" viewBox="0 0 900 225" height="300" preserveAspectRatio="xMidYMid meet" version="1.0"><defs><g/><clipPath id="62aeef6a99"><rect x="0" width="477" y="0" height="212"/></clipPath><clipPath id="b9d3b3c2c9"><path d="M 102.261719 13.765625 L 294 13.765625 L 294 205.578125 L 102.261719 205.578125 Z M 102.261719 13.765625 " clip-rule="nonzero"/></clipPath><clipPath id="55367b4c57"><path d="M 102.261719 52.4375 L 102.261719 166.664062 C 102.261719 188.023438 119.574219 205.335938 140.933594 205.335938 L 255.160156 205.335938 C 276.515625 205.335938 293.832031 188.023438 293.832031 166.664062 L 293.832031 52.4375 C 293.832031 31.078125 276.515625 13.765625 255.160156 13.765625 L 140.933594 13.765625 C 119.574219 13.765625 102.261719 31.078125 102.261719 52.4375 Z M 102.261719 52.4375 " clip-rule="nonzero"/></clipPath></defs><g transform="matrix(1, 0, 0, 1, 327, 9)"><g clip-path="url(#62aeef6a99)"><g fill="#000000" fill-opacity="1"><g transform="translate(0.190504, 169.493387)"><g><path d="M 56.1875 1.8125 C 46.15625 1.8125 37.476562 0.269531 30.15625 -2.8125 C 22.832031 -5.894531 17.144531 -10.453125 13.09375 -16.484375 C 9.039062 -22.515625 6.9375 -29.910156 6.78125 -38.671875 L 31.3125 -38.671875 C 31.53125 -34.484375 32.710938 -30.941406 34.859375 -28.046875 C 37.015625 -25.160156 39.910156 -22.984375 43.546875 -21.515625 C 47.179688 -20.054688 51.335938 -19.328125 56.015625 -19.328125 C 60.535156 -19.328125 64.488281 -19.988281 67.875 -21.3125 C 71.257812 -22.632812 73.890625 -24.476562 75.765625 -26.84375 C 77.640625 -29.21875 78.578125 -31.945312 78.578125 -35.03125 C 78.578125 -37.84375 77.765625 -40.210938 76.140625 -42.140625 C 74.515625 -44.066406 72.113281 -45.71875 68.9375 -47.09375 C 65.769531 -48.46875 61.847656 -49.679688 57.171875 -50.734375 L 43.78125 -54.03125 C 32.988281 -56.5625 24.628906 -60.566406 18.703125 -66.046875 C 12.785156 -71.535156 9.828125 -78.738281 9.828125 -87.65625 C 9.828125 -95.09375 11.820312 -101.59375 15.8125 -107.15625 C 19.8125 -112.71875 25.296875 -117.054688 32.265625 -120.171875 C 39.234375 -123.285156 47.234375 -124.84375 56.265625 -124.84375 C 65.410156 -124.84375 73.382812 -123.269531 80.1875 -120.125 C 86.988281 -116.988281 92.285156 -112.609375 96.078125 -106.984375 C 99.878906 -101.367188 101.863281 -94.84375 102.03125 -87.40625 L 77.75 -87.40625 C 77.300781 -92.53125 75.160156 -96.523438 71.328125 -99.390625 C 67.503906 -102.253906 62.425781 -103.6875 56.09375 -103.6875 C 51.851562 -103.6875 48.191406 -103.066406 45.109375 -101.828125 C 42.023438 -100.585938 39.671875 -98.878906 38.046875 -96.703125 C 36.421875 -94.523438 35.609375 -92.035156 35.609375 -89.234375 C 35.609375 -86.304688 36.472656 -83.863281 38.203125 -81.90625 C 39.941406 -79.957031 42.335938 -78.332031 45.390625 -77.03125 C 48.453125 -75.738281 51.882812 -74.65625 55.6875 -73.78125 L 66.921875 -71.046875 C 72.367188 -69.835938 77.363281 -68.226562 81.90625 -66.21875 C 86.457031 -64.207031 90.382812 -61.769531 93.6875 -58.90625 C 96.988281 -56.039062 99.519531 -52.648438 101.28125 -48.734375 C 103.050781 -44.828125 103.9375 -40.367188 103.9375 -35.359375 C 103.9375 -27.816406 102.035156 -21.25 98.234375 -15.65625 C 94.429688 -10.0625 88.976562 -5.75 81.875 -2.71875 C 74.769531 0.300781 66.207031 1.8125 56.1875 1.8125 Z M 56.1875 1.8125 "/></g></g><g transform="translate(110.898489, 169.493387)"><g><path d="M 56.921875 -91.21875 L 56.921875 -72.296875 L 1.5625 -72.296875 L 1.5625 -91.21875 Z M 14.875 -113.59375 L 39.484375 -113.59375 L 39.484375 -27.015625 C 39.484375 -24.097656 40.128906 -21.960938 41.421875 -20.609375 C 42.722656 -19.265625 44.890625 -18.59375 47.921875 -18.59375 C 49.023438 -18.59375 50.441406 -18.6875 52.171875 -18.875 C 53.910156 -19.070312 55.25 -19.253906 56.1875 -19.421875 L 58.90625 -0.65625 C 56.425781 -0.0507812 53.835938 0.367188 51.140625 0.609375 C 48.441406 0.859375 45.828125 0.984375 43.296875 0.984375 C 33.929688 0.984375 26.851562 -1.175781 22.0625 -5.5 C 17.269531 -9.820312 14.875 -16.140625 14.875 -24.453125 Z M 14.875 -113.59375 "/></g></g><g transform="translate(172.944531, 169.493387)"><g><path d="M 36.109375 1.734375 C 30.265625 1.734375 25.03125 0.71875 20.40625 -1.3125 C 15.78125 -3.351562 12.144531 -6.398438 9.5 -10.453125 C 6.851562 -14.503906 5.53125 -19.53125 5.53125 -25.53125 C 5.53125 -30.65625 6.46875 -34.921875 8.34375 -38.328125 C 10.21875 -41.742188 12.78125 -44.5 16.03125 -46.59375 C 19.28125 -48.6875 22.984375 -50.269531 27.140625 -51.34375 C 31.296875 -52.414062 35.660156 -53.175781 40.234375 -53.625 C 45.578125 -54.175781 49.875 -54.679688 53.125 -55.140625 C 56.375 -55.609375 58.738281 -56.335938 60.21875 -57.328125 C 61.707031 -58.328125 62.453125 -59.816406 62.453125 -61.796875 L 62.453125 -62.21875 C 62.453125 -64.75 61.890625 -66.90625 60.765625 -68.6875 C 59.640625 -70.476562 58 -71.859375 55.84375 -72.828125 C 53.695312 -73.796875 51.082031 -74.28125 48 -74.28125 C 44.863281 -74.28125 42.125 -73.796875 39.78125 -72.828125 C 37.4375 -71.859375 35.535156 -70.5625 34.078125 -68.9375 C 32.617188 -67.320312 31.585938 -65.492188 30.984375 -63.453125 L 8.265625 -66.34375 C 9.523438 -71.851562 11.945312 -76.5625 15.53125 -80.46875 C 19.113281 -84.382812 23.6875 -87.375 29.25 -89.4375 C 34.8125 -91.5 41.144531 -92.53125 48.25 -92.53125 C 53.425781 -92.53125 58.34375 -91.921875 63 -90.703125 C 67.65625 -89.492188 71.800781 -87.625 75.4375 -85.09375 C 79.070312 -82.5625 81.921875 -79.351562 83.984375 -75.46875 C 86.046875 -71.582031 87.078125 -66.941406 87.078125 -61.546875 L 87.078125 0 L 63.53125 0 L 63.53125 -12.71875 L 62.796875 -12.71875 C 61.304688 -9.851562 59.332031 -7.332031 56.875 -5.15625 C 54.425781 -2.988281 51.492188 -1.296875 48.078125 -0.078125 C 44.671875 1.128906 40.679688 1.734375 36.109375 1.734375 Z M 43.046875 -15.53125 C 46.953125 -15.53125 50.363281 -16.300781 53.28125 -17.84375 C 56.207031 -19.382812 58.492188 -21.445312 60.140625 -24.03125 C 61.796875 -26.625 62.625 -29.546875 62.625 -32.796875 L 62.625 -42.46875 C 61.851562 -42.03125 60.78125 -41.585938 59.40625 -41.140625 C 58.03125 -40.703125 56.457031 -40.316406 54.6875 -39.984375 C 52.925781 -39.648438 51.148438 -39.347656 49.359375 -39.078125 C 47.566406 -38.804688 45.929688 -38.554688 44.453125 -38.328125 C 41.472656 -37.890625 38.828125 -37.1875 36.515625 -36.21875 C 34.203125 -35.257812 32.410156 -33.96875 31.140625 -32.34375 C 29.878906 -30.71875 29.25 -28.691406 29.25 -26.265625 C 29.25 -23.953125 29.835938 -22 31.015625 -20.40625 C 32.203125 -18.8125 33.828125 -17.597656 35.890625 -16.765625 C 37.960938 -15.941406 40.347656 -15.53125 43.046875 -15.53125 Z M 43.046875 -15.53125 "/></g></g><g transform="translate(270.103179, 169.493387)"><g><path d="M 51.140625 1.8125 C 41.992188 1.8125 34.0625 -0.15625 27.34375 -4.09375 C 20.625 -8.03125 15.429688 -13.535156 11.765625 -20.609375 C 8.109375 -27.691406 6.28125 -35.914062 6.28125 -45.28125 C 6.28125 -54.695312 8.109375 -62.957031 11.765625 -70.0625 C 15.429688 -77.164062 20.625 -82.6875 27.34375 -86.625 C 34.0625 -90.5625 41.992188 -92.53125 51.140625 -92.53125 C 56.703125 -92.53125 61.8125 -91.800781 66.46875 -90.34375 C 71.125 -88.882812 75.238281 -86.773438 78.8125 -84.015625 C 82.394531 -81.265625 85.328125 -77.945312 87.609375 -74.0625 C 89.898438 -70.1875 91.429688 -65.820312 92.203125 -60.96875 L 69.0625 -57.671875 C 68.570312 -60.035156 67.828125 -62.15625 66.828125 -64.03125 C 65.835938 -65.90625 64.597656 -67.515625 63.109375 -68.859375 C 61.628906 -70.210938 59.910156 -71.242188 57.953125 -71.953125 C 56.003906 -72.671875 53.816406 -73.03125 51.390625 -73.03125 C 47.035156 -73.03125 43.382812 -71.875 40.4375 -69.5625 C 37.488281 -67.25 35.242188 -64.015625 33.703125 -59.859375 C 32.160156 -55.703125 31.390625 -50.867188 31.390625 -45.359375 C 31.390625 -39.898438 32.160156 -35.09375 33.703125 -30.9375 C 35.242188 -26.78125 37.488281 -23.53125 40.4375 -21.1875 C 43.382812 -18.851562 47.035156 -17.6875 51.390625 -17.6875 C 53.816406 -17.6875 56.003906 -18.054688 57.953125 -18.796875 C 59.910156 -19.535156 61.644531 -20.59375 63.15625 -21.96875 C 64.675781 -23.351562 65.941406 -25.019531 66.953125 -26.96875 C 67.972656 -28.925781 68.707031 -31.144531 69.15625 -33.625 L 92.28125 -30.234375 C 91.570312 -25.335938 90.070312 -20.929688 87.78125 -17.015625 C 85.5 -13.109375 82.566406 -9.734375 78.984375 -6.890625 C 75.398438 -4.054688 71.253906 -1.894531 66.546875 -0.40625 C 61.835938 1.070312 56.703125 1.8125 51.140625 1.8125 Z M 51.140625 1.8125 "/></g></g><g transform="translate(368.418479, 169.493387)"><g><path d="M 95.265625 34.53125 L 70.640625 34.53125 L 70.640625 -14.375 L 69.890625 -14.375 C 68.679688 -11.726562 66.945312 -9.191406 64.6875 -6.765625 C 62.425781 -4.347656 59.601562 -2.351562 56.21875 -0.78125 C 52.832031 0.78125 48.742188 1.5625 43.953125 1.5625 C 36.734375 1.5625 30.285156 -0.28125 24.609375 -3.96875 C 18.941406 -7.65625 14.46875 -12.992188 11.1875 -19.984375 C 7.914062 -26.984375 6.28125 -35.492188 6.28125 -45.515625 C 6.28125 -55.710938 7.957031 -64.289062 11.3125 -71.25 C 14.675781 -78.21875 19.191406 -83.503906 24.859375 -87.109375 C 30.535156 -90.722656 36.84375 -92.53125 43.78125 -92.53125 C 48.6875 -92.53125 52.859375 -91.726562 56.296875 -90.125 C 59.742188 -88.53125 62.582031 -86.507812 64.8125 -84.0625 C 67.039062 -81.613281 68.765625 -79.09375 69.984375 -76.5 L 70.96875 -76.5 L 70.96875 -91.21875 L 95.265625 -91.21875 Z M 51.21875 -18.265625 C 55.457031 -18.265625 59.066406 -19.40625 62.046875 -21.6875 C 65.023438 -23.96875 67.3125 -27.144531 68.90625 -31.21875 C 70.5 -35.300781 71.296875 -40.097656 71.296875 -45.609375 C 71.296875 -51.117188 70.507812 -55.894531 68.9375 -59.9375 C 67.375 -63.988281 65.085938 -67.128906 62.078125 -69.359375 C 59.078125 -71.585938 55.457031 -72.703125 51.21875 -72.703125 C 47.03125 -72.703125 43.460938 -71.570312 40.515625 -69.3125 C 37.578125 -67.0625 35.347656 -63.894531 33.828125 -59.8125 C 32.316406 -55.738281 31.5625 -51.003906 31.5625 -45.609375 C 31.5625 -40.148438 32.316406 -35.367188 33.828125 -31.265625 C 35.347656 -27.160156 37.578125 -23.96875 40.515625 -21.6875 C 43.460938 -19.40625 47.03125 -18.265625 51.21875 -18.265625 Z M 51.21875 -18.265625 "/></g></g></g></g></g><g clip-path="url(#b9d3b3c2c9)"><g clip-path="url(#55367b4c57)"><path fill="#1db954" d="M 281.351562 205.3125 L 114.714844 205.3125 C 107.851562 205.3125 102.261719 199.722656 102.261719 192.855469 L 102.261719 26.222656 C 102.261719 19.355469 107.851562 13.765625 114.714844 13.765625 L 281.351562 13.765625 C 288.214844 13.765625 293.804688 19.355469 293.804688 26.222656 L 293.804688 192.855469 C 293.804688 199.722656 288.214844 205.3125 281.351562 205.3125 Z M 281.351562 205.3125 " fill-opacity="1" fill-rule="nonzero"/></g></g><path fill="#ffffff" d="M 198.492188 145.332031 C 192.988281 145.332031 188.226562 144.480469 184.214844 142.789062 C 180.195312 141.097656 177.070312 138.597656 174.839844 135.3125 C 172.621094 132.007812 171.46875 127.949219 171.390625 123.128906 L 184.859375 123.128906 C 184.964844 125.433594 185.609375 127.375 186.792969 128.960938 C 187.96875 130.558594 189.566406 131.75 191.5625 132.539062 C 193.5625 133.335938 195.832031 133.730469 198.394531 133.730469 C 200.859375 133.730469 203.019531 133.378906 204.875 132.667969 C 206.742188 131.945312 208.191406 130.929688 209.222656 129.640625 C 210.253906 128.335938 210.769531 126.828125 210.769531 125.128906 C 210.769531 123.582031 210.320312 122.285156 209.417969 121.226562 C 208.53125 120.179688 207.226562 119.277344 205.484375 118.519531 C 203.746094 117.773438 201.59375 117.101562 199.039062 116.523438 L 191.691406 114.71875 C 185.777344 113.324219 181.195312 111.125 177.933594 108.113281 C 174.683594 105.105469 173.066406 101.152344 173.066406 96.253906 C 173.066406 92.191406 174.160156 88.640625 176.351562 85.585938 C 178.542969 82.539062 181.550781 80.164062 185.375 78.464844 C 189.195312 76.746094 193.578125 75.886719 198.523438 75.886719 C 203.550781 75.886719 207.917969 76.746094 211.640625 78.464844 C 215.378906 80.1875 218.289062 82.589844 220.375 85.683594 C 222.453125 88.761719 223.539062 92.335938 223.628906 96.414062 L 210.320312 96.414062 C 210.078125 93.601562 208.910156 91.410156 206.808594 89.839844 C 204.695312 88.277344 201.917969 87.488281 198.460938 87.488281 C 196.117188 87.488281 194.09375 87.832031 192.402344 88.519531 C 190.726562 89.1875 189.4375 90.121094 188.535156 91.320312 C 187.648438 92.507812 187.214844 93.867188 187.214844 95.414062 C 187.214844 97.011719 187.679688 98.339844 188.632812 99.410156 C 189.574219 100.492188 190.886719 101.375 192.5625 102.085938 C 194.238281 102.792969 196.117188 103.398438 198.203125 103.890625 L 204.390625 105.371094 C 207.371094 106.042969 210.109375 106.9375 212.609375 108.046875 C 215.097656 109.144531 217.25 110.480469 219.054688 112.042969 C 220.859375 113.613281 222.242188 115.476562 223.210938 117.617188 C 224.175781 119.746094 224.660156 122.1875 224.660156 124.933594 C 224.660156 129.082031 223.613281 132.691406 221.535156 135.761719 C 219.449219 138.816406 216.457031 141.175781 212.574219 142.851562 C 208.683594 144.503906 203.988281 145.332031 198.492188 145.332031 Z M 198.492188 145.332031 " fill-opacity="1" fill-rule="nonzero"/></svg>