<svg xmlns="http://www.w3.org/2000/svg" xmlns:xlink="http://www.w3.org/1999/xlink" width="512" zoomAndPan="magnify" viewBox="0 0 384 383.999986" height="512" preserveAspectRatio="xMidYMid meet" version="1.0"><defs><g/><clipPath id="c50754df28"><path d="M 6.238281 6.238281 L 377.488281 6.238281 L 377.488281 377.488281 L 6.238281 377.488281 Z M 6.238281 6.238281 " clip-rule="nonzero"/></clipPath><clipPath id="54720e9c64"><path d="M 6.238281 81.238281 L 6.238281 302.761719 C 6.238281 344.183594 39.816406 377.761719 81.238281 377.761719 L 302.761719 377.761719 C 344.183594 377.761719 377.761719 344.183594 377.761719 302.761719 L 377.761719 81.238281 C 377.761719 39.816406 344.183594 6.238281 302.761719 6.238281 L 81.238281 6.238281 C 39.816406 6.238281 6.238281 39.816406 6.238281 81.238281 Z M 6.238281 81.238281 " clip-rule="nonzero"/></clipPath><clipPath id="3473e00e21"><rect x="0" width="126" y="0" height="226"/></clipPath></defs><g clip-path="url(#c50754df28)"><g clip-path="url(#54720e9c64)"><path fill="#1db954" d="M 353.597656 377.757812 L 30.398438 377.757812 C 17.085938 377.757812 6.238281 366.910156 6.238281 353.597656 L 6.238281 30.398438 C 6.238281 17.085938 17.085938 6.238281 30.398438 6.238281 L 353.597656 6.238281 C 366.910156 6.238281 377.757812 17.085938 377.757812 30.398438 L 377.757812 353.597656 C 377.757812 366.910156 366.910156 377.757812 353.597656 377.757812 Z M 353.597656 377.757812 " fill-opacity="1" fill-rule="nonzero"/></g></g><g transform="matrix(1, 0, 0, 1, 132, 79)"><g clip-path="url(#3473e00e21)"><g fill="#ffffff" fill-opacity="1"><g transform="translate(1.116559, 180.458502)"><g><path d="M 59.75 1.9375 C 49.082031 1.9375 39.851562 0.296875 32.0625 -2.984375 C 24.28125 -6.265625 18.234375 -11.113281 13.921875 -17.53125 C 9.617188 -23.945312 7.378906 -31.8125 7.203125 -41.125 L 33.296875 -41.125 C 33.535156 -36.664062 34.796875 -32.898438 37.078125 -29.828125 C 39.359375 -26.753906 42.429688 -24.441406 46.296875 -22.890625 C 50.160156 -21.335938 54.582031 -20.5625 59.5625 -20.5625 C 64.375 -20.5625 68.578125 -21.265625 72.171875 -22.671875 C 75.773438 -24.078125 78.570312 -26.035156 80.5625 -28.546875 C 82.5625 -31.066406 83.5625 -33.96875 83.5625 -37.25 C 83.5625 -40.238281 82.695312 -42.757812 80.96875 -44.8125 C 79.238281 -46.863281 76.6875 -48.617188 73.3125 -50.078125 C 69.945312 -51.546875 65.773438 -52.835938 60.796875 -53.953125 L 46.5625 -57.453125 C 35.082031 -60.148438 26.191406 -64.410156 19.890625 -70.234375 C 13.597656 -76.066406 10.453125 -83.726562 10.453125 -93.21875 C 10.453125 -101.125 12.570312 -108.035156 16.8125 -113.953125 C 21.0625 -119.867188 26.890625 -124.476562 34.296875 -127.78125 C 41.710938 -131.09375 50.222656 -132.75 59.828125 -132.75 C 69.554688 -132.75 78.035156 -131.078125 85.265625 -127.734375 C 92.503906 -124.398438 98.144531 -119.742188 102.1875 -113.765625 C 106.226562 -107.796875 108.332031 -100.859375 108.5 -92.953125 L 82.671875 -92.953125 C 82.203125 -98.398438 79.929688 -102.644531 75.859375 -105.6875 C 71.796875 -108.738281 66.394531 -110.265625 59.65625 -110.265625 C 55.144531 -110.265625 51.25 -109.601562 47.96875 -108.28125 C 44.6875 -106.96875 42.179688 -105.15625 40.453125 -102.84375 C 38.734375 -100.53125 37.875 -97.878906 37.875 -94.890625 C 37.875 -91.785156 38.796875 -89.191406 40.640625 -87.109375 C 42.484375 -85.035156 45.03125 -83.304688 48.28125 -81.921875 C 51.53125 -80.546875 55.175781 -79.390625 59.21875 -78.453125 L 71.171875 -75.5625 C 76.960938 -74.269531 82.273438 -72.554688 87.109375 -70.421875 C 91.941406 -68.285156 96.113281 -65.691406 99.625 -62.640625 C 103.144531 -59.597656 105.84375 -55.992188 107.71875 -51.828125 C 109.59375 -47.671875 110.53125 -42.929688 110.53125 -37.609375 C 110.53125 -29.578125 108.507812 -22.585938 104.46875 -16.640625 C 100.425781 -10.703125 94.625 -6.117188 87.0625 -2.890625 C 79.507812 0.328125 70.40625 1.9375 59.75 1.9375 Z M 59.75 1.9375 "/></g></g></g></g></g></svg>